<svg id="Calque_1" data-name="Calque 1" xmlns="http://www.w3.org/2000/svg" viewBox="0 0 134.18 133.8"><title>facebook</title><path d="M134.18,63.11V71c-.08.42-.17.84-.24,1.26-.5,3.31-.73,6.7-1.55,9.94-6.22,24.34-21.35,40.57-45.07,48.72-3.83,1.31-7.9,1.94-12,2.91V81H91.41c.82-6.32,1.61-12.44,2.42-18.7H75.49c0-5-.16-9.88.06-14.74.15-3.28,2.12-5.26,5.36-5.88a31,31,0,0,1,5.19-.43c2.74-.07,5.47,0,8.28,0V24.58a2.55,2.55,0,0,0-.53-.18c-5.5-.19-11-.64-16.48-.5A21.44,21.44,0,0,0,63.8,29.06c-5.11,4.35-7.34,10.12-7.69,16.62-.27,5-.15,10-.2,15,0,.5,0,1,0,1.61h-16V81.08H55.81v52c-.28,0-.45,0-.62-.06a66.24,66.24,0,0,1-24.28-9.61A66.9,66.9,0,0,1,3.72,45.2,67.17,67.17,0,0,1,64.91,0,65,65,0,0,1,98.77,8c18.83,10.45,30.35,26.31,34.36,47.51C133.61,58,133.84,60.56,134.18,63.11Z"/></svg>